<svg xmlns="http://www.w3.org/2000/svg" xmlns:xlink="http://www.w3.org/1999/xlink" version="1.1" x="0px" y="0px" width="100px" height="100px" viewBox="5.0 -10.0 100.0 135.0" enable-background="new 0 0 100 100" xml:space="preserve">
<g id="Captions">
</g>
<g id="Your_Icon">
	<path d="M47.6,69.407c0.069,0.069,0.139,0.132,0.206,0.189c0.038,0.031,0.077,0.06,0.116,0.09c0.02,0.015,0.036,0.028,0.057,0.043   c0.564,0.42,1.262,0.67,2.021,0.671c0.758-0.001,1.455-0.251,2.02-0.67c0.025-0.018,0.052-0.037,0.075-0.057   c0.031-0.025,0.063-0.048,0.094-0.075c0.072-0.059,0.143-0.122,0.215-0.194l15.105-15.105c1.327-1.327,1.326-3.479,0-4.807   c-1.327-1.329-3.479-1.33-4.808,0l-9.301,9.299l-0.001-25.792c0.001-1.878-1.521-3.4-3.398-3.4S46.601,31.121,46.601,33v25.791   l-9.299-9.299c-1.329-1.328-3.482-1.328-4.811,0s-1.327,3.48,0,4.808l15.102,15.103C47.596,69.403,47.596,69.406,47.6,69.407z"/>
	<path d="M50,15.999c-18.777,0-34,15.224-34.001,34.001C16,68.777,31.223,83.999,50,84c18.777,0,34-15.223,34.001-34.001   C84,31.223,68.778,15.999,50,15.999z M49.998,77.2c-15.021,0-27.198-12.179-27.2-27.2c0.001-15.021,12.181-27.201,27.201-27.201   c15.023,0,27.201,12.18,27.2,27.2C77.2,65.021,65.021,77.2,49.998,77.2z"/>
</g>
</svg>
