<svg xmlns="http://www.w3.org/2000/svg" xmlns:xlink="http://www.w3.org/1999/xlink" version="1.1" id="Layer_1" x="0px" y="0px" viewBox="0 0 100 99.457" xml:space="preserve">
<g>
	<polygon points="76.037,14.929 70.877,13.947 71.562,9.927 76.723,10.908  " fill="#F7AE53" />
	<rect x="59.114" y="8.355" transform="matrix(0.9858 0.1681 -0.1681 0.9858 2.632 -10.3033)" width="6.117" height="4.078" fill="#F7AE53" />
	<rect x="47.052" y="6.298" transform="matrix(0.9858 0.168 -0.168 0.9858 2.1131 -8.3006)" width="6.118" height="4.079" fill="#F7AE53" />
	<path d="M44.524,10.188l-4.003,0.785l3.06,15.61c1.679,0.082,3.122,0.44,4.349,0.984L44.524,10.188z" fill="#3D67B1" />
	<path d="M85.475,17.574c-1.127,1.363-2.857,1.335-3.88,1.314l8.665,37.119l-22.987-9.903c-0.592,1.245-1.274,2.442-2.002,3.578   l23.546,10.145c0.616-1.62,1.882-2.728,3.869-2.728c0.784,0,1.481,0.141,2.103,0.366L85.475,17.574z" fill="#3D67B1" />
	<path d="M67.538,31.637l12.531-13.003c-1.146-0.42-2.435-1.376-2.903-2.865L64.715,28.688   C65.825,29.492,66.784,30.489,67.538,31.637z" fill="#3D67B1" />
	<path d="M58.157,30.121c-6.374,0-7.647,5.607-7.647,5.607s-1.02-5.607-7.647-5.607c-4.224,0-7.647,3.423-7.647,7.646   c0,9.985,13.935,21.711,15.294,21.711c1.869,0,15.295-11.853,15.295-21.711C65.805,33.544,62.38,30.121,58.157,30.121z" fill="#E22B35" />
	<path d="M82.04,20.794L82.04,20.794l-0.746-0.01c-2.653,0-6.355-2.418-6.355-6.356c0-4.375,2.554-7.315,6.355-7.315   c4.519,0,7.315,3.3,7.315,6.356c0,2.822-0.814,4.878-2.422,6.11C84.771,20.668,83.141,20.794,82.04,20.794z M81.294,11.191   c-1.981,0-2.277,2.028-2.277,3.237c0,1.571,1.811,2.277,2.277,2.277l0.746,0.01l0,0c0.551,0,1.236-0.042,1.666-0.372   c0.532-0.408,0.825-1.429,0.825-2.875C84.531,12.7,83.554,11.191,81.294,11.191z" fill="#3F4174" />
	<path d="M43.851,13.682L43.851,13.682l-0.746-0.01c-2.654,0-6.355-2.418-6.355-6.355C36.749,2.94,39.303,0,43.104,0   c4.518,0,7.315,3.3,7.315,6.357c0,2.822-0.815,4.878-2.422,6.11C46.58,13.556,44.952,13.682,43.851,13.682z M43.104,4.079   c-1.981,0-2.277,2.028-2.277,3.237c0,1.571,1.811,2.277,2.277,2.277l0.746,0.01l0,0c0.55,0,1.236-0.042,1.665-0.372   c0.532-0.408,0.826-1.429,0.826-2.875C46.341,5.587,45.364,4.079,43.104,4.079z" fill="#3F4174" />
	<path d="M93.43,68.741L93.43,68.741l-0.745-0.01c-2.654,0-6.355-2.418-6.355-6.355c0-4.376,2.555-7.316,6.355-7.316   c4.519,0,7.315,3.3,7.315,6.356c0,2.822-0.814,4.879-2.422,6.111C96.16,68.614,94.531,68.741,93.43,68.741z M92.685,59.139   c-1.981,0-2.276,2.027-2.276,3.237c0,1.57,1.809,2.276,2.276,2.276l0.745,0.01l0,0c0.551,0,1.237-0.042,1.666-0.371   c0.533-0.408,0.825-1.429,0.825-2.875C95.921,60.646,94.943,59.139,92.685,59.139z" fill="#3F4174" />
</g>
</svg>