<svg xmlns="http://www.w3.org/2000/svg" xmlns:xlink="http://www.w3.org/1999/xlink" version="1.1" id="Your_Icon" x="0px" y="0px" width="100px" height="100px" viewBox="5.0 -10.0 100.0 135.0" enable-background="new 0 0 100 100" xml:space="preserve">
<path fill="#000000" d="M59.105,12.935V5.612H40.631v7.322c-7.078,1.526-13.516,4.768-18.859,9.271l-3.51-3.51l-7.257,7.256  l3.742,3.741C9.4,36.935,6.235,45.886,6.235,55.578c0,24.099,19.535,43.633,43.633,43.633c24.097,0,43.632-19.534,43.632-43.633  C93.5,34.651,78.764,17.173,59.105,12.935z M49.868,88.794c-18.345,0-33.216-14.871-33.216-33.216  c0-18.344,14.871-33.216,33.216-33.216c18.345,0,33.216,14.872,33.216,33.216C83.084,73.923,68.213,88.794,49.868,88.794z"/>
<circle fill="#000000" cx="49.868" cy="27.077" r="1.935"/>
<path fill="#000000" d="M55.406,55.409c0-2.546-1.746-4.678-4.104-5.28V34.952c0-0.583-0.592-1.056-1.32-1.056  s-1.32,0.473-1.32,1.056v15.163c-2.388,0.581-4.164,2.728-4.164,5.295c0,2.566,1.776,4.713,4.164,5.294v3.103  c0,0.582,0.591,1.055,1.32,1.055s1.32-0.473,1.32-1.055v-3.118C53.66,60.087,55.406,57.955,55.406,55.409z"/>
<path fill="#000000" d="M42.361,4.575C42.361,0.494,45.669,0,49.75,0c4.08,0,7.391,0.494,7.391,4.575  C57.141,4.589,42.361,4.589,42.361,4.575z"/>
<path fill="#000000" d="M18.54,11.632c1.454,1.454,1.761,3.505,0.685,4.582L8.525,26.914c-1.077,1.076-3.128,0.77-4.582-0.685l0,0  c-1.455-1.454-1.761-3.505-0.685-4.582l10.7-10.7C15.035,9.872,17.085,10.178,18.54,11.632L18.54,11.632z"/>
<circle fill="#000000" cx="78.369" cy="55.666" r="1.936"/>
<circle fill="#000000" cx="64.998" cy="31.563" r="1.936"/>
<circle fill="#000000" cx="74.764" cy="41.943" r="1.936"/>
<circle fill="#000000" cx="49.809" cy="83.904" r="1.935"/>
<circle fill="#000000" cx="21.307" cy="55.608" r="1.935"/>
<circle fill="#000000" cx="34.678" cy="79.418" r="1.935"/>
<circle fill="#000000" cx="24.914" cy="69.037" r="1.935"/>
<circle fill="#000000" cx="34.801" cy="31.574" r="1.935"/>
<circle fill="#000000" cx="24.875" cy="41.931" r="1.935"/>
<circle fill="#000000" cx="64.998" cy="79.594" r="1.936"/>
<circle fill="#000000" cx="74.764" cy="69.215" r="1.936"/>
</svg>
